# xmcd
#
# Track frame offsets:
#	150
#	10701
#	47272
#	53014
#	65947
#	74048
#	77704
#	87317
#	95190
#	108146
#	116281
#	129407
#	142391
#	157038
#	166285
#	175946
#	187815
#	201047
#	219973
#
# Disc length: 3048 seconds
#
# Revision: 0
# Processed by: cddbd v1.5.2PL0 Copyright (c) Steve Scherf et al.
# Submitted via: EasyCDDAExtractor 2010.6.0.0
#
DISCID=090be613
DTITLE=Vladimir Vysotsky - 15 Маскарад (На Концертах, №15)
DYEAR=2002
DGENRE=Vocal
TTITLE0=Прошла Пора Вступлений И Прелюдий…
TTITLE1=Банька По-Белому
TTITLE2=У Домашних И Хищных Зверей
TTITLE3=Баллада О Бане
TTITLE4=Весна Еще В Начале
TTITLE5=Правда Ведь, Обидно
TTITLE6=Сивка-Бурка
TTITLE7=У Нас Вчера С Позавчера Шла Спокойная Игра…
TTITLE8=Бал-Маскарад
TTITLE9=Марш Аквалангистов
TTITLE10=Песня Про Белого Слона
TTITLE11=Романс (Из Кинофильма "Один Из Нас")
TTITLE12=Романс (Из Кинофильма "Опасные Гастроли")
TTITLE13=Оплавляются Свечи На Старинный Паркет…
TTITLE14=Песня Плотника Иосифа, Девы Марии И Святого Духа
TTITLE15=Семейные Дела В Древнем Риме
TTITLE16=Про Любовь В Средние Века
TTITLE17=Про Любовь В Эпоху Возрождения
TTITLE18=Она На Двор - Он Со Двора…
EXTD=
EXTT0=
EXTT1=
EXTT2=
EXTT3=
EXTT4=
EXTT5=
EXTT6=
EXTT7=
EXTT8=
EXTT9=
EXTT10=
EXTT11=
EXTT12=
EXTT13=
EXTT14=
EXTT15=
EXTT16=
EXTT17=
EXTT18=
PLAYORDER=
